<?xml version="1.0" encoding="UTF-8" standalone="no"?>
<!-- Created with Inkscape (http://www.inkscape.org/) -->

<svg
   width="215.472mm"
   height="56mm"
   viewBox="-20 -15 215.47228 56.000073"
   version="1.1"
   id="svg1"
   inkscape:version="1.4 (86a8ad7, 2024-10-11)"
   sodipodi:docname="TriOrb BASE 余白付き.svg"
   xmlns:inkscape="http://www.inkscape.org/namespaces/inkscape"
   xmlns:sodipodi="http://sodipodi.sourceforge.net/DTD/sodipodi-0.dtd"
   xmlns="http://www.w3.org/2000/svg"
   xmlns:svg="http://www.w3.org/2000/svg">
  <sodipodi:namedview
     id="namedview1"
     pagecolor="#ffffff"
     bordercolor="#000000"
     borderopacity="0.25"
     inkscape:showpageshadow="2"
     inkscape:pageopacity="0.0"
     inkscape:pagecheckerboard="0"
     inkscape:deskcolor="#d1d1d1"
     inkscape:document-units="mm"
     inkscape:zoom="0.78840488"
     inkscape:cx="918.94408"
     inkscape:cy="516.86641"
     inkscape:window-width="2560"
     inkscape:window-height="1369"
     inkscape:window-x="1912"
     inkscape:window-y="-8"
     inkscape:window-maximized="1"
     inkscape:current-layer="layer1" />
  <defs
     id="defs1">
    <clipPath
       clipPathUnits="userSpaceOnUse"
       id="clipPath666">
      <path
         d="M 0,1870.866 H 2650.394 V 0 H 0 Z"
         transform="translate(-284.37201,-1145.4803)"
         id="path666" />
    </clipPath>
    <clipPath
       clipPathUnits="userSpaceOnUse"
       id="clipPath668">
      <path
         d="M 0,1870.866 H 2650.394 V 0 H 0 Z"
         transform="translate(-324.17038,-1089.4678)"
         id="path668" />
    </clipPath>
    <clipPath
       clipPathUnits="userSpaceOnUse"
       id="clipPath670">
      <path
         d="M 0,1870.866 H 2650.394 V 0 H 0 Z"
         transform="translate(-204.03831,-1089.4678)"
         id="path670" />
    </clipPath>
    <clipPath
       clipPathUnits="userSpaceOnUse"
       id="clipPath672">
      <path
         d="M 0,1870.866 H 2650.394 V 0 H 0 Z"
         transform="translate(-376.12941,-1084.3087)"
         id="path672" />
    </clipPath>
    <clipPath
       clipPathUnits="userSpaceOnUse"
       id="clipPath674">
      <path
         d="M 0,1870.866 H 2650.394 V 0 H 0 Z"
         transform="translate(2.5000001e-5,-2.5e-5)"
         id="path674" />
    </clipPath>
    <clipPath
       clipPathUnits="userSpaceOnUse"
       id="clipPath676">
      <path
         d="M 0,1870.866 H 2650.394 V 0 H 0 Z"
         transform="translate(-243.09973,-1125.9496)"
         id="path676" />
    </clipPath>
    <clipPath
       clipPathUnits="userSpaceOnUse"
       id="clipPath678">
      <path
         d="M 0,1870.866 H 2650.394 V 0 H 0 Z"
         transform="translate(-216.56743,-1130.7401)"
         id="path678" />
    </clipPath>
    <clipPath
       clipPathUnits="userSpaceOnUse"
       id="clipPath680">
      <path
         d="M 0,1870.866 H 2650.394 V 0 H 0 Z"
         transform="translate(-454.62081,-1074.7279)"
         id="path680" />
    </clipPath>
    <clipPath
       clipPathUnits="userSpaceOnUse"
       id="clipPath682">
      <path
         d="M 0,1870.866 H 2650.394 V 0 H 0 Z"
         transform="translate(-454.62081,-1100.5237)"
         id="path682" />
    </clipPath>
    <clipPath
       clipPathUnits="userSpaceOnUse"
       id="clipPath684">
      <path
         d="M 0,1870.866 H 2650.394 V 0 H 0 Z"
         transform="translate(-586.46564,-1100.5225)"
         id="path684" />
    </clipPath>
    <clipPath
       clipPathUnits="userSpaceOnUse"
       id="clipPath686">
      <path
         d="M 0,1870.866 H 2650.394 V 0 H 0 Z"
         transform="translate(2.5000001e-5,-2.5e-5)"
         id="path686" />
    </clipPath>
    <clipPath
       clipPathUnits="userSpaceOnUse"
       id="clipPath688">
      <path
         d="M 0,1870.866 H 2650.394 V 0 H 0 Z"
         transform="translate(-629.21174,-1135.8995)"
         id="path688" />
    </clipPath>
    <clipPath
       clipPathUnits="userSpaceOnUse"
       id="clipPath690">
      <path
         d="M 0,1870.866 H 2650.394 V 0 H 0 Z"
         transform="translate(-629.21174,-1110.1039)"
         id="path690" />
    </clipPath>
    <clipPath
       clipPathUnits="userSpaceOnUse"
       id="clipPath692">
      <path
         d="M 0,1870.866 H 2650.394 V 0 H 0 Z"
         transform="translate(-486.20271,-1074.7276)"
         id="path692" />
    </clipPath>
  </defs>
  <g
     inkscape:label="Layer 1"
     inkscape:groupmode="layer"
     id="layer1"
     transform="translate(138.1125,-11.906244)">
    <g
       id="g1"
       transform="matrix(0.84511106,0,0,0.84511106,-7.8027799,3.8577074)">
      <path
         id="path665"
         d="m 0,0 c -20.352,0 -36.85,-16.499 -36.85,-36.85 0,-20.352 16.498,-36.851 36.85,-36.851 20.352,0 36.85,16.499 36.85,36.851 C 36.85,-16.499 20.352,0 0,0 m 0,-10.318 c 14.63,0 26.532,-11.902 26.532,-26.532 0,-14.63 -11.902,-26.533 -26.532,-26.533 -14.63,0 -26.532,11.903 -26.532,26.533 0,14.63 11.902,26.532 26.532,26.532"
         style="fill:#c7d1ef;fill-opacity:1;fill-rule:nonzero;stroke:none"
         transform="matrix(0.35277776,0,0,-0.35277776,-97.29273,11.906244)"
         clip-path="url(#clipPath666)" />
      <path
         id="path667"
         d="M 0,0 V -14.74 H 9.581 V 0 c 0,6.909 5.621,12.529 12.529,12.529 V 22.11 C 9.899,22.11 0,12.211 0,0"
         style="fill:#c7d1ef;fill-opacity:1;fill-rule:nonzero;stroke:none"
         transform="matrix(0.35277776,0,0,-0.35277776,-83.252748,31.666235)"
         clip-path="url(#clipPath668)" />
      <path
         id="path669"
         d="M 0,0 V -14.74 H 9.581 V 0 c 0,6.909 5.621,12.529 12.529,12.529 V 22.11 C 9.899,22.11 0,12.211 0,0"
         style="fill:#c7d1ef;fill-opacity:1;fill-rule:nonzero;stroke:none"
         transform="matrix(0.35277776,0,0,-0.35277776,-125.63267,31.666235)"
         clip-path="url(#clipPath670)" />
      <path
         id="path671"
         d="m 0,0 c -7.925,0 -14.372,6.447 -14.372,14.372 0,7.924 6.447,14.371 14.372,14.371 7.925,0 14.372,-6.447 14.372,-14.371 C 14.372,6.447 7.925,0 0,0 m 0,38.324 c -5.393,0 -10.368,-1.782 -14.372,-4.79 V 56.75 h -9.581 V -9.581 h 9.581 v 4.79 c 4.004,-3.007 8.979,-4.79 14.372,-4.79 13.229,0 23.953,10.724 23.953,23.953 C 23.953,27.6 13.229,38.324 0,38.324"
         style="fill:#c7d1ef;fill-opacity:1;fill-rule:nonzero;stroke:none"
         transform="matrix(0.35277776,0,0,-0.35277776,-64.922759,33.48625)"
         clip-path="url(#clipPath672)" />
      <path
         id="path673"
         d="m 241.626,1074.728 h -9.581 v 36.85 h 9.581 z"
         style="fill:#c7d1ef;fill-opacity:1;fill-rule:nonzero;stroke:none"
         transform="matrix(0.35277776,0,0,-0.35277776,-197.61286,416.00622)"
         clip-path="url(#clipPath674)" />
      <path
         id="path675"
         d="m 0,0 c 0,-3.46 -2.805,-6.265 -6.265,-6.265 -3.459,0 -6.264,2.805 -6.264,6.265 0,3.46 2.805,6.265 6.264,6.265 C -2.805,6.265 0,3.46 0,0"
         style="fill:#c7d1ef;fill-opacity:1;fill-rule:nonzero;stroke:none"
         transform="matrix(0.35277776,0,0,-0.35277776,-111.85267,18.79624)"
         clip-path="url(#clipPath676)" />
      <path
         id="path677"
         d="m 0,0 h -19.162 -9.581 -19.162 v -9.581 h 19.162 v -46.432 h 9.581 V -9.581 H 0 Z"
         style="fill:#c7d1ef;fill-opacity:1;fill-rule:nonzero;stroke:none"
         transform="matrix(0.35277776,0,0,-0.35277776,-121.21268,17.106259)"
         clip-path="url(#clipPath678)" />
      <path
         id="path679"
         d="M 0,0 H -27.269 V 9.581 H 0 c 4.47,0 8.107,3.637 8.107,8.108 0,4.47 -3.637,8.107 -8.107,8.107 h -27.269 v 9.581 H 0 c 9.753,0 17.688,-7.935 17.688,-17.688 C 17.688,7.935 9.753,0 0,0"
         style="fill:#ffffff;fill-opacity:1;fill-rule:nonzero;stroke:none"
         transform="matrix(0.35277776,0,0,-0.35277776,-37.232737,36.866117)"
         clip-path="url(#clipPath680)" />
      <path
         id="path681"
         d="M 0,0 H -27.269 V 9.581 H 0 c 4.47,0 8.107,3.637 8.107,8.107 0,4.47 -3.637,8.107 -8.107,8.107 h -27.269 v 9.581 H 0 c 9.753,0 17.688,-7.935 17.688,-17.688 C 17.688,7.935 9.753,0 0,0"
         style="fill:#ffffff;fill-opacity:1;fill-rule:nonzero;stroke:none"
         transform="matrix(0.35277776,0,0,-0.35277776,-37.232737,27.765959)"
         clip-path="url(#clipPath682)" />
      <path
         id="path683"
         d="m 0,0 c 4.47,0 8.107,-3.637 8.107,-8.107 0,-4.469 -3.637,-8.106 -8.107,-8.106 h -36.851 v -9.582 H 0 c 9.753,0 17.688,7.935 17.688,17.688 C 17.688,1.646 9.753,9.581 0,9.581 h -22.111 c -4.469,0 -8.106,3.637 -8.106,8.107 0,4.471 3.637,8.108 8.106,8.108 H 14.74 v 9.581 h -36.851 c -9.753,0 -17.688,-7.935 -17.688,-17.689 C -39.799,7.935 -31.864,0 -22.111,0 Z"
         style="fill:#ffffff;fill-opacity:1;fill-rule:nonzero;stroke:none"
         transform="matrix(0.35277776,0,0,-0.35277776,9.2791866,27.766356)"
         clip-path="url(#clipPath684)" />
      <path
         id="path685"
         d="m 427.352,1074.728 h -9.581 v 61.172 h 9.581 z"
         style="fill:#ffffff;fill-opacity:1;fill-rule:nonzero;stroke:none"
         transform="matrix(0.35277776,0,0,-0.35277776,-197.61286,416.00622)"
         clip-path="url(#clipPath686)" />
      <path
         id="path687"
         d="M 0,0 H 36.851 V -9.581 H 0 c -4.47,0 -8.107,-3.637 -8.107,-8.108 0,-4.47 3.637,-8.107 8.107,-8.107 h 36.851 v -9.581 H 0 c -9.753,0 -17.688,7.935 -17.688,17.688 C -17.688,-7.935 -9.753,0 0,0"
         style="fill:#ffffff;fill-opacity:1;fill-rule:nonzero;stroke:none"
         transform="matrix(0.35277776,0,0,-0.35277776,24.359061,15.286137)"
         clip-path="url(#clipPath688)" />
      <path
         id="path689"
         d="M 0,0 H 36.851 V -9.581 H 0 c -4.47,0 -8.107,-3.637 -8.107,-8.107 0,-4.47 3.637,-8.107 8.107,-8.107 h 36.851 v -9.581 H 0 c -9.753,0 -17.688,7.935 -17.688,17.688 C -17.688,-7.935 -9.753,0 0,0"
         style="fill:#ffffff;fill-opacity:1;fill-rule:nonzero;stroke:none"
         transform="matrix(0.35277776,0,0,-0.35277776,24.359061,24.386251)"
         clip-path="url(#clipPath690)" />
      <path
         id="path691"
         d="m 0,0 18.567,50.17 c 0.746,2.014 2.542,3.263 4.689,3.263 2.149,0 3.946,-1.25 4.691,-3.264 L 46.515,0 H 57.516 L 37.623,53.75 C 35.375,59.826 29.736,63.751 23.257,63.751 16.778,63.751 11.138,59.826 8.89,53.75 L -11.003,0 Z"
         style="fill:#ffffff;fill-opacity:1;fill-rule:nonzero;stroke:none"
         transform="matrix(0.35277776,0,0,-0.35277776,-26.091345,36.86625)"
         clip-path="url(#clipPath692)" />
    </g>
  </g>
</svg>
