<?xml version="1.0" encoding="UTF-8" standalone="no"?>
<svg
   viewBox="0 0 652.32105 129.875"
   height="129.875"
   width="652.32104"
   xml:space="preserve"
   id="svg2"
   version="1.1"
   sodipodi:docname="GitHub_Logo.svg"
   inkscape:version="1.3.2 (091e20e, 2023-11-25, custom)"
   xmlns:inkscape="http://www.inkscape.org/namespaces/inkscape"
   xmlns:sodipodi="http://sodipodi.sourceforge.net/DTD/sodipodi-0.dtd"
   xmlns="http://www.w3.org/2000/svg"
   xmlns:svg="http://www.w3.org/2000/svg"
   xmlns:rdf="http://www.w3.org/1999/02/22-rdf-syntax-ns#"
   xmlns:cc="http://creativecommons.org/ns#"
   xmlns:dc="http://purl.org/dc/elements/1.1/"><sodipodi:namedview
     id="namedview1"
     pagecolor="#ffffff"
     bordercolor="#000000"
     borderopacity="0.25"
     inkscape:showpageshadow="2"
     inkscape:pageopacity="0.0"
     inkscape:pagecheckerboard="0"
     inkscape:deskcolor="#d1d1d1"
     inkscape:zoom="0.41017718"
     inkscape:cx="193.81868"
     inkscape:cy="-184.0668"
     inkscape:window-width="1920"
     inkscape:window-height="1129"
     inkscape:window-x="1035"
     inkscape:window-y="2158"
     inkscape:window-maximized="1"
     inkscape:current-layer="svg2" /><metadata
     id="metadata8"><rdf:RDF><cc:Work
         rdf:about=""><dc:format>image/svg+xml</dc:format><dc:type
           rdf:resource="http://purl.org/dc/dcmitype/StillImage" /></cc:Work></rdf:RDF></metadata><defs
     id="defs6"><clipPath
       clipPathUnits="userSpaceOnUse"
       id="clipPath1"><g
         id="g2"
         transform="matrix(0.75000002,0,0,-0.75000002,-257.2017,128.02152)"><path
           id="path1"
           d="M 0,1.92e-5 H 767.99998 V 768 H 0 Z"
           style="stroke-width:1.33333" /></g></clipPath><clipPath
       clipPathUnits="userSpaceOnUse"
       id="clipPath2"><g
         id="g3"
         transform="matrix(0.75000002,0,0,-0.75000002,-437.584,176.40531)"><path
           id="path2"
           d="M 0,1.92e-5 H 767.99998 V 768 H 0 Z"
           style="stroke-width:1.33333" /></g></clipPath><clipPath
       clipPathUnits="userSpaceOnUse"
       id="clipPath3"><g
         id="g4"
         transform="matrix(0.75000002,0,0,-0.75000002,-398.0322,128.16361)"><path
           id="path3"
           d="M 0,1.92e-5 H 767.99998 V 768 H 0 Z"
           style="stroke-width:1.33333" /></g></clipPath><clipPath
       clipPathUnits="userSpaceOnUse"
       id="clipPath4"><g
         id="g5"
         transform="matrix(0.75000002,0,0,-0.75000002,-208.2217,170.61471)"><path
           id="path4"
           d="M 0,1.92e-5 H 767.99998 V 768 H 0 Z"
           style="stroke-width:1.33333" /></g></clipPath><clipPath
       clipPathUnits="userSpaceOnUse"
       id="clipPath5"><g
         id="g6"
         transform="matrix(0.75000002,0,0,-0.75000002,-209.4404,111.95072)"><path
           id="path5"
           d="M 0,1.92e-5 H 767.99998 V 768 H 0 Z"
           style="stroke-width:1.33333" /></g></clipPath><clipPath
       clipPathUnits="userSpaceOnUse"
       id="clipPath6"><g
         id="g7"
         transform="matrix(0.75000002,0,0,-0.75000002,-333.2646,100.24851)"><path
           id="path6"
           d="M 0,1.92e-5 H 767.99998 V 768 H 0 Z"
           style="stroke-width:1.33333" /></g></clipPath><clipPath
       clipPathUnits="userSpaceOnUse"
       id="clipPath7"><g
         id="g8"
         transform="matrix(0.75000002,0,0,-0.75000002,-177.2812,136.98781)"><path
           id="path7"
           d="M 0,1.92e-5 H 767.99998 V 768 H 0 Z"
           style="stroke-width:1.33333" /></g></clipPath><clipPath
       clipPathUnits="userSpaceOnUse"
       id="clipPath8"><g
         id="g9"
         transform="matrix(0.75000002,0,0,-0.75000002,-257.2017,416.02152)"><path
           id="path8"
           d="M 0,1.92e-5 H 767.99998 V 768 H 0 Z"
           style="stroke-width:1.33333" /></g></clipPath><clipPath
       clipPathUnits="userSpaceOnUse"
       id="clipPath9"><g
         id="g10"
         transform="matrix(0.75000002,0,0,-0.75000002,-437.584,464.40531)"><path
           id="path9"
           d="M 0,1.92e-5 H 767.99998 V 768 H 0 Z"
           style="stroke-width:1.33333" /></g></clipPath><clipPath
       clipPathUnits="userSpaceOnUse"
       id="clipPath10"><g
         id="g11"
         transform="matrix(0.75000002,0,0,-0.75000002,-398.0322,416.16312)"><path
           id="path10"
           d="M 0,1.92e-5 H 767.99998 V 768 H 0 Z"
           style="stroke-width:1.33333" /></g></clipPath><clipPath
       clipPathUnits="userSpaceOnUse"
       id="clipPath11"><g
         id="g12"
         transform="matrix(0.75000002,0,0,-0.75000002,-208.2217,458.61432)"><path
           id="path11"
           d="M 0,1.92e-5 H 767.99998 V 768 H 0 Z"
           style="stroke-width:1.33333" /></g></clipPath><clipPath
       clipPathUnits="userSpaceOnUse"
       id="clipPath12"><g
         id="g13"
         transform="matrix(0.75000002,0,0,-0.75000002,-209.4404,399.95021)"><path
           id="path12"
           d="M 0,1.92e-5 H 767.99998 V 768 H 0 Z"
           style="stroke-width:1.33333" /></g></clipPath><clipPath
       clipPathUnits="userSpaceOnUse"
       id="clipPath13"><g
         id="g14"
         transform="matrix(0.75000002,0,0,-0.75000002,-333.2646,388.24901)"><path
           id="path13"
           d="M 0,1.92e-5 H 767.99998 V 768 H 0 Z"
           style="stroke-width:1.33333" /></g></clipPath><clipPath
       clipPathUnits="userSpaceOnUse"
       id="clipPath14"><g
         id="g15"
         transform="matrix(0.75000002,0,0,-0.75000002,-177.2812,424.98732)"><path
           id="path14"
           d="M 0,1.92e-5 H 767.99998 V 768 H 0 Z"
           style="stroke-width:1.33333" /></g></clipPath></defs><g
     transform="matrix(1.3333333,0,0,-1.3333333,264.57333,55.587999)"
     id="g50"
     clip-path="url(#clipPath7)"><path
       id="path52"
       style="fill:#2e2d2d;fill-opacity:1;fill-rule:nonzero;stroke:none"
       d="m 0,0 h -30.267 c -0.781,0 -1.415,-0.634 -1.415,-1.415 v -14.798 c 0,-0.781 0.634,-1.416 1.415,-1.416 h 11.807 v -18.386 c 0,0 -2.651,-0.903 -9.981,-0.903 -8.647,0 -20.727,3.159 -20.727,29.723 0,26.569 12.579,30.065 24.388,30.065 10.222,0 14.626,-1.8 17.428,-2.667 0.881,-0.269 1.695,0.607 1.695,1.388 l 3.377,14.298 c 0,0.366 -0.124,0.806 -0.54,1.105 -1.138,0.812 -8.081,4.697 -25.621,4.697 -20.205,0 -40.932,-8.597 -40.932,-49.922 0,-41.326 23.73,-47.484 43.727,-47.484 16.557,0 26.601,7.075 26.601,7.075 0.414,0.228 0.459,0.807 0.459,1.072 V -1.415 C 1.414,-0.634 0.781,0 0,0" /></g><g
     transform="matrix(1.3333333,0,0,-1.3333333,472.55119,6.6022686)"
     id="g54"
     clip-path="url(#clipPath6)"><path
       id="path56"
       style="fill:#2e2d2d;fill-opacity:1;fill-rule:nonzero;stroke:none"
       d="m 0,0 c 0,0.787 -0.624,1.423 -1.405,1.423 h -17.042 c -0.779,0 -1.411,-0.636 -1.411,-1.423 0,-0.004 0.004,-32.935 0.004,-32.935 H -46.418 V 0 c 0,0.787 -0.627,1.423 -1.407,1.423 h -17.041 c -0.775,0 -1.407,-0.636 -1.407,-1.423 v -89.178 c 0,-0.786 0.632,-1.426 1.407,-1.426 h 17.041 c 0.78,0 1.407,0.64 1.407,1.426 v 38.145 h 26.564 c 0,0 -0.046,-38.142 -0.046,-38.145 0,-0.786 0.631,-1.426 1.412,-1.426 h 17.082 c 0.78,0 1.404,0.64 1.406,1.426 z" /></g><g
     transform="matrix(1.3333333,0,0,-1.3333333,307.45226,22.205209)"
     id="g58"
     clip-path="url(#clipPath5)"><path
       id="path60"
       style="fill:#2e2d2d;fill-opacity:1;fill-rule:nonzero;stroke:none"
       d="m 0,0 c 0,6.136 -4.92,11.095 -10.99,11.095 -6.064,0 -10.987,-4.959 -10.987,-11.095 0,-6.13 4.923,-11.103 10.987,-11.103 C -4.92,-11.103 0,-6.13 0,0" /></g><g
     transform="matrix(1.3333333,0,0,-1.3333333,305.82733,100.42387)"
     id="g62"
     clip-path="url(#clipPath4)"><path
       id="path64"
       style="fill:#2e2d2d;fill-opacity:1;fill-rule:nonzero;stroke:none"
       d="m 0,0 v 41.165 c 0,0.781 -0.63,1.42 -1.41,1.42 h -16.988 c -0.78,0 -1.477,-0.803 -1.477,-1.585 v -58.977 c 0,-1.732 1.08,-2.248 2.478,-2.248 h 15.306 c 1.679,0 2.091,0.825 2.091,2.276 z" /></g><g
     transform="matrix(1.3333333,0,0,-1.3333333,558.90799,43.822399)"
     id="g66"
     clip-path="url(#clipPath3)"><path
       id="path68"
       style="fill:#2e2d2d;fill-opacity:1;fill-rule:nonzero;stroke:none"
       d="m 0,0 h -16.911 c -0.776,0 -1.407,-0.639 -1.407,-1.426 v -43.726 c 0,0 -4.297,-3.144 -10.395,-3.144 -6.098,0 -7.716,2.767 -7.716,8.738 v 38.132 c 0,0.787 -0.63,1.426 -1.406,1.426 h -17.164 c -0.774,0 -1.409,-0.639 -1.409,-1.426 v -41.019 c 0,-17.735 9.884,-22.074 23.481,-22.074 11.156,0 20.15,6.163 20.15,6.163 0,0 0.427,-3.248 0.622,-3.633 0.193,-0.384 0.698,-0.772 1.244,-0.772 l 10.919,0.048 c 0.774,0 1.409,0.64 1.409,1.424 L 1.411,-1.426 C 1.411,-0.639 0.779,0 0,0" /></g><g
     transform="matrix(1.3333333,0,0,-1.3333333,611.64372,108.14467)"
     id="g70"
     clip-path="url(#clipPath2)"><path
       id="path72"
       style="fill:#2e2d2d;fill-opacity:1;fill-rule:nonzero;stroke:none"
       d="m 0,0 c -5.866,0.179 -9.845,2.84 -9.845,2.84 v 28.241 c 0,0 3.925,2.406 8.741,2.836 6.09,0.545 11.958,-1.294 11.958,-15.822 C 10.854,2.776 8.206,-0.248 0,0 m 6.67,50.245 c -9.605,0 -16.138,-4.286 -16.138,-4.286 v 30.198 c 0,0.787 -0.63,1.423 -1.406,1.423 h -17.091 c -0.777,0 -1.408,-0.636 -1.408,-1.423 v -89.178 c 0,-0.787 0.631,-1.427 1.41,-1.427 h 11.858 c 0.534,0 0.938,0.276 1.237,0.758 0.295,0.479 0.72,4.111 0.72,4.111 0,0 6.988,-6.622 20.217,-6.622 15.532,0 24.439,7.878 24.439,35.366 0,27.488 -14.226,31.08 -23.838,31.08" /></g><g
     transform="matrix(1.3333333,0,0,-1.3333333,371.13399,43.632939)"
     id="g74"
     clip-path="url(#clipPath1)"><path
       id="path76"
       style="fill:#2e2d2d;fill-opacity:1;fill-rule:nonzero;stroke:none"
       d="m 0,0 h -12.784 c 0,0 -0.019,16.885 -0.019,16.889 0,0.639 -0.329,0.959 -1.069,0.959 h -17.42 c -0.677,0 -1.041,-0.299 -1.041,-0.95 V -0.554 c 0,0 -8.73,-2.107 -9.32,-2.278 -0.588,-0.17 -1.021,-0.712 -1.021,-1.359 v -10.967 c 0,-0.788 0.63,-1.425 1.409,-1.425 h 8.932 v -26.384 c 0,-19.596 13.746,-21.521 23.021,-21.521 4.239,0 9.309,1.361 10.146,1.67 0.506,0.186 0.801,0.71 0.801,1.278 l 0.014,12.065 c 0,0.787 -0.665,1.424 -1.413,1.424 -0.745,0 -2.651,-0.303 -4.613,-0.303 -6.279,0 -8.407,2.919 -8.407,6.698 0,3.777 -10e-4,25.073 -10e-4,25.073 H 0 c 0.779,0 1.411,0.637 1.411,1.425 V -1.421 C 1.411,-0.634 0.779,0 0,0" /></g><path
     fill-rule="evenodd"
     clip-rule="evenodd"
     d="M 66.09264,0 C 29.54512,0 0,29.762894 0,66.583655 0,96.016453 18.93058,120.9307 45.1923,129.74864 c 3.2834,0.6629 4.48609,-1.43268 4.48609,-3.19545 0,-1.54362 -0.10823,-6.83465 -0.10823,-12.34755 -18.38537,3.96929 -22.21397,-7.93722 -22.21397,-7.93722 -2.95465,-7.716709 -7.3325,-9.7 -7.3325,-9.7 -6.01753,-4.07887 0.43832,-4.07887 0.43832,-4.07887 6.67502,0.441032 10.17757,6.834643 10.17757,6.834643 5.90795,10.141027 15.42803,7.275677 19.25797,5.511547 0.54656,-4.29939 2.29851,-7.275675 4.1587,-8.928868 C 39.39259,94.36326 23.96457,88.631197 23.96457,63.055399 c 0,-7.275675 2.62455,-13.228254 6.78324,-17.857737 -0.65613,-1.653194 -2.95465,-8.48919 0.65749,-17.638575 0,0 5.58055,-1.764128 18.16351,6.834643 a 63.543856,63.543782 0 0 1 16.52383,-2.20516 c 5.58055,0 11.26933,0.772483 16.522487,2.20516 12.584308,-8.598771 18.164853,-6.834643 18.164853,-6.834643 3.61214,9.149385 1.31228,15.985381 0.65614,17.638575 4.26828,4.629483 6.7846,10.582062 6.7846,17.857737 0,25.575798 -15.428024,31.196926 -30.20126,32.851473 2.40809,2.094225 4.486085,6.062158 4.486085,12.346188 0,8.92887 -0.108229,16.09496 -0.108229,18.29878 0,1.76412 1.204045,3.8597 4.486086,3.19815 C 113.14513,120.92935 132.0757,96.016453 132.0757,66.583655 132.18393,29.762894 102.53059,0 66.09264,0 Z"
     fill="#24292f"
     id="path1-7"
     style="stroke-width:1.35286" /></svg>
